#define Cursor_23x15_width 23
#define Cursor_23x15_height 15
#define Cursor_23x15_x_hot 11
#define Cursor_23x15_y_hot 7
static char Cursor_23x15_bits[] = {
 0xff,0xeb,0x7f,0x01,0x08,0x40,0x01,0x08,0x40,0x01,0x08,0x40,0x01,0x08,0x40,
 0x01,0x00,0x40,0x00,0x00,0x00,0xff,0xc9,0x7f,0x00,0x00,0x00,0x01,0x00,0x40,
 0x01,0x08,0x40,0x01,0x08,0x40,0x01,0x08,0x40,0x01,0x08,0x40,0xff,0xeb,0x7f};
